<!-- TACTILE ICON -->
<svg width="64" height="64" viewBox="0 0 64 64" fill="none" xmlns="http://www.w3.org/2000/svg">
  <path d="M22 34V24C22 22.9 22.9 22 24 22C25.1 22 26 22.9 26 24V34" stroke="#EDEDED" stroke-width="1.4" stroke-linecap="round"/>
  <path d="M26 34V20C26 18.9 26.9 18 28 18C29.1 18 30 18.9 30 20V34" stroke="#EDEDED" stroke-width="1.4" stroke-linecap="round"/>
  <path d="M30 34V18C30 16.9 30.9 16 32 16C33.1 16 34 16.9 34 18V34" stroke="#EDEDED" stroke-width="1.4" stroke-linecap="round"/>
  <path d="M34 34V22C34 20.9 34.9 20 36 20C37.1 20 38 20.9 38 22V36" stroke="#EDEDED" stroke-width="1.4" stroke-linecap="round"/>
  <path d="M22 34L26 42C27.5 45 30 48 34 48C39 48 42 44 42 39V30" stroke="#EDEDED" stroke-width="1.4" stroke-linecap="round"/>
</svg>